<svg width="130" height="130" viewBox="0 0 130 130" fill="none" xmlns="http://www.w3.org/2000/svg">
<g clip-path="url(#clip0_613_156)">
<path fill-rule="evenodd" clip-rule="evenodd" d="M64.6739 14.5797C72.7861 20.0611 80.6436 35.0775 83.5046 50.567C85.6988 62.4493 86.3359 63.5989 90.7251 63.5989C93.8917 63.5989 97.2523 64.7908 98.5819 66.3848C99.0687 66.9683 99.6871 67.4459 99.9566 67.4459C100.668 67.4459 101.888 62.1819 101.888 59.1094C101.888 55.6246 102.946 56.3748 103.474 60.2334C103.78 62.4685 103.523 64.4561 102.51 67.7069C101.436 71.1519 101.282 72.4695 101.818 73.6378C102.196 74.4642 102.766 75.14 103.085 75.14C103.998 75.14 106.401 69.0348 106.412 66.6861C106.419 65.0781 106.574 64.7947 107.047 65.5224C107.875 66.7977 107.852 71.016 106.997 74.0744C106.404 76.1986 106.47 76.6513 107.483 77.388C108.129 77.8573 108.467 78.4299 108.235 78.6601C106.807 80.0803 83.9424 88.6413 81.7288 88.5842C81.291 88.5733 81.496 88.1405 82.184 87.6225C84.0443 86.2234 82.9011 86.4799 79.3889 88.2495C73.8674 91.0322 58.4329 97.4081 56.1078 97.8678C54.8665 98.1134 58.6418 96.0353 64.4966 93.2513C70.352 90.4667 77.5447 86.946 80.4799 85.4271C85.0057 83.0855 86.3772 82.6713 89.5006 82.7014C93.6208 82.7405 97.0479 81.4332 98.1389 79.4064C98.756 78.2594 98.5722 78.3094 96.8429 79.7565C92.5666 83.3343 87.2477 82.3052 84.858 77.438C83.7387 75.1574 83.709 74.688 84.5356 72.3291C85.5428 69.4567 88.8261 66.8048 91.3769 66.8048C93.7434 66.8048 96.6482 68.5635 98.0454 70.8435C98.738 71.972 99.3054 72.6516 99.3067 72.3535C99.3138 70.8544 96.8796 68.0595 94.726 67.0939C91.7 65.7372 88.5153 66.2296 86.136 68.4218C85.1882 69.2957 83.9676 70.0106 83.424 70.0106C82.0235 70.0106 74.9301 75.6863 73.9842 77.5631C73.1891 79.141 67.5884 82.393 50.9494 90.9367C46.5164 93.2129 43.2086 94.9902 43.5993 94.8857C46.5461 94.0977 69.8923 82.8713 74.627 79.9655L77.3487 78.2953L77.7485 79.879L78.1483 81.462L80.1852 80.2271C82.4452 78.8569 83.1893 78.696 83.1893 79.5783C83.1893 80.9068 46.419 99.606 38.1624 102.477L34.7243 103.672L33.4779 102.147C32.5204 100.976 32.4011 100.417 32.964 99.7426C33.418 99.1989 33.4476 98.8635 33.0427 98.8635C31.4088 98.8635 30.6344 93.6566 31.9053 91.2124C32.8183 89.4569 32.9743 89.4152 40.3379 88.9644C44.464 88.7118 47.9749 88.6394 48.14 88.8035C48.3051 88.9676 46.0309 89.9845 43.0854 91.0636C40.1406 92.1421 38.0869 93.0404 38.5222 93.059C39.9659 93.1212 47.8202 89.9204 52.8057 87.239C60.9418 82.863 67.0506 78.3632 73.7727 71.7944L80.1542 65.559L79.7403 61.1348C78.8247 51.3345 74.2814 38.1968 68.7645 29.3947C65.8578 24.7577 62.6699 21.0832 63.5642 23.401C63.8976 24.2647 63.6061 24.4884 62.1411 24.4936C60.132 24.5 54.5377 26.8916 51.502 29.0402C49.672 30.3366 49.5373 30.3462 48.3354 29.2646C47.3275 28.3579 47.0806 28.3195 47.0806 29.0684C47.0806 29.5813 47.4288 30.3475 47.8543 30.7707C49.1742 32.0832 47.3946 31.6497 45.5556 30.2109C43.6528 28.7228 43.3459 29.2473 44.8606 31.3971C46.3836 33.5598 44.3434 33.3194 42.6141 31.1329C41.3496 29.5351 41.2774 29.5178 41.2774 30.8124C41.2774 32.3454 40.6281 32.5615 39.472 31.4119C38.1682 30.1154 38.5312 33.3565 40.0349 36.4464C41.1472 38.7296 45.1262 42.5164 47.1541 43.221C47.441 43.3204 47.4262 45.8531 47.1206 48.8486C46.6976 53.006 46.7685 54.1815 47.4217 55.4369C48.1587 56.8546 48.2166 57.62 47.125 60.9009C45.4169 66.0348 45.6722 68.2607 48.2185 68.7743C51.3265 69.4007 51.5942 69.8734 51.5942 73.1761C51.5942 75.14 51.9462 76.5564 52.5614 77.0636C53.0933 77.5028 53.5286 78.5453 53.5286 79.3808C53.5286 80.2162 54.1089 81.2601 54.8182 81.7006C55.5274 82.141 56.1078 82.8733 56.1078 83.3279C56.1078 83.8709 55.443 83.6658 54.1734 82.7328C52.9799 81.8551 52.239 80.7343 52.239 79.8059C52.239 78.4992 52.0687 78.3915 50.9487 78.9877C50.2388 79.3654 47.5558 81.6839 44.9863 84.1396C40.3721 88.549 40.2702 88.6047 36.8064 88.6047H33.2987L35.1518 86.6812C37.9412 83.7857 36.6606 84.3698 33.6456 87.3679C31.6099 89.3921 30.6163 89.932 29.2177 89.7723C27.676 89.5966 27.1918 89.008 25.8803 85.7194C25.0369 83.6036 23.4674 78.5543 22.3926 74.4989C20.6858 68.0602 20.4356 66.0277 20.4227 58.4695C20.4053 48.9102 21.3035 44.3521 24.5288 37.6313C29.3531 27.5763 40.9698 17.9177 51.7644 14.9856C53.9567 14.3906 54.3939 14.4932 56.2748 16.041C57.4199 16.9835 59.157 18.6127 60.1339 19.661C61.1114 20.7094 61.911 21.2409 61.911 20.8427C61.911 20.4439 60.4311 18.7948 58.6225 17.1778C55.2889 14.1976 55.2934 13.9424 58.687 13.3852C61.8213 12.8703 62.2804 12.962 64.6739 14.5797ZM77.1572 14.3014C83.0687 16.114 86.726 18.0209 91.1261 21.5852C100.336 29.0453 107.421 41.5777 110.347 55.5842C111.513 61.1643 111.387 71.084 110.115 73.8577L109.086 76.1018L109.034 70.6993C108.986 65.8494 108.65 64.4183 105.746 56.7114C103.966 51.9897 102.677 47.8567 102.882 47.5272C103.488 46.5532 102.536 46.8385 100.594 48.2139C98.293 49.8437 87.6732 54.7192 86.9491 54.4794C86.6493 54.3801 88.6185 53.0015 91.3234 51.4153C94.029 49.8296 97.2633 47.6548 98.511 46.5821C100.4 44.958 100.669 44.4226 100.122 43.3762C99.76 42.685 97.9681 39.0194 96.1394 35.2307L92.8142 28.3419L88.258 30.6232C85.7524 31.878 83.5639 32.7679 83.3956 32.6C83.2267 32.4326 84.7342 31.0868 86.7447 29.6102L90.4007 26.9243L88.5682 25.0206C85.3558 21.6827 80.1323 18.0068 74.9765 15.4556C69.3803 12.6863 70.3004 12.199 77.1572 14.3014ZM90.295 70.1979C87.9995 71.3462 87.0291 73.5833 87.8325 75.8748C89.518 80.683 96.7301 79.6251 96.7301 74.57C96.7301 71.0519 93.2772 68.7059 90.295 70.1979ZM99.4111 74.4989C99.4111 75.3805 99.5575 75.7415 99.7361 75.3003C99.9154 74.8599 99.9154 74.1385 99.7361 73.6974C99.5575 73.2569 99.4111 73.6173 99.4111 74.4989ZM111.154 81.7121C111.368 82.5059 111.547 85.2655 111.551 87.8456C111.557 90.425 111.88 93.1308 112.272 93.8579C112.818 94.8729 112.78 95.3069 112.11 95.7295C111.457 96.1418 111.56 96.2822 112.528 96.2899C113.35 96.2969 114.488 97.3568 115.668 99.2149C116.687 100.817 117.386 102.26 117.224 102.422C117.061 102.584 115.938 102.21 114.728 101.593C111.626 100.009 104.617 100.184 99.6542 101.969C97.5386 102.729 95.6726 103.352 95.5075 103.352C94.8653 103.352 102.162 98.2224 103.328 97.8543C104.009 97.6395 104.422 97.3228 104.249 97.1503C104.076 96.9772 103.328 97.158 102.589 97.5517C101.695 98.0275 101.244 98.0448 101.244 97.6036C101.244 97.2388 101.462 96.9298 101.727 96.9169C101.993 96.9041 103.081 96.177 104.145 95.3005C105.454 94.2214 103.37 94.9806 97.6973 97.6472C87.4218 102.478 78.2134 106.084 72.5276 107.501C70.1689 108.089 66.4529 109.535 64.269 110.714C60.8064 112.584 59.2402 112.973 52.0114 113.757C45.1817 114.497 43.667 114.507 43.3988 113.813C42.8443 112.375 42.1924 112.883 42.2194 114.733C42.2343 115.762 41.9093 116.469 41.4386 116.432C40.9956 116.396 39.6009 116.325 38.3404 116.271C36.2061 116.182 35.9385 115.928 34.4535 112.59C32.2767 107.695 32.1761 106.223 34.0234 106.288C34.821 106.316 35.4742 105.968 35.4742 105.516C35.4742 104.707 36.4569 104.458 42.8894 103.639C53.7368 102.259 82.638 92.4345 104.79 82.5976C107.627 81.3377 110.132 80.2983 110.357 80.288C110.582 80.2778 110.94 80.9183 111.154 81.7121ZM38.6492 82.6739L37.0862 84.4371L38.8594 82.8829C40.5165 81.43 40.9286 80.9106 40.4224 80.9106C40.307 80.9106 39.5094 81.7044 38.6492 82.6739ZM106.402 89.5248C101.201 92.3268 80.5147 98.6398 61.1469 103.334C38.2598 108.883 37.0811 109.099 36.2054 107.909C35.5864 107.067 35.5638 107.126 36.0829 108.237C36.4324 108.984 36.5349 109.777 36.3112 110C35.3375 110.968 44.7774 110.625 53.851 109.362C60.6807 108.41 76.8264 104.616 83.5117 102.392C90.7915 99.9689 108.981 90.5603 108.981 89.2177C108.981 88.4028 108.343 88.4791 106.402 89.5248ZM35.9984 93.5309C36.4633 93.7162 37.0198 93.6931 37.2339 93.4802C37.4479 93.2674 37.0675 93.116 36.3879 93.1436C35.6367 93.1744 35.4839 93.3263 35.9984 93.5309ZM33.4192 94.1721C33.8841 94.3574 34.4406 94.3343 34.6547 94.1214C34.8688 93.9085 34.4883 93.7572 33.8087 93.7848C33.0575 93.8156 32.9047 93.9675 33.4192 94.1721ZM106.08 96.3155C105.219 96.6944 105.754 96.7566 107.692 96.5021C109.288 96.2918 110.714 96.0161 110.862 95.8891C111.422 95.407 107.311 95.7731 106.08 96.3155ZM113.926 103.311C118.986 105.596 122.962 111.029 127.562 121.946L128.238 123.549L128.292 121.946C128.321 121.064 128.606 119.933 128.925 119.431C129.351 118.762 129.704 119.274 130.249 121.355C130.659 122.914 131.568 126.143 132.269 128.529C132.971 130.917 133.393 133.115 133.206 133.415C133.019 133.715 131.973 134.329 130.882 134.778C129.49 135.352 129.102 135.798 129.579 136.272C130.725 137.412 130.365 141.077 128.97 142.463C127.031 144.392 123.599 144.174 121.89 142.013L120.52 140.281L116.523 142.427C111.446 145.154 106.082 149.186 104.392 151.546C103.67 152.554 102.767 153.187 102.384 152.951C102.002 152.717 101.863 152.804 102.076 153.147C102.289 153.489 101.639 155.007 100.632 156.519C98.8353 159.219 98.8237 159.292 100.022 160.484C101.527 161.981 101.571 163.205 100.171 164.598C99.4756 165.289 98.4949 165.544 97.3845 165.323C95.8925 165.026 95.5668 165.269 94.8659 167.197C94.4223 168.416 93.7936 169.249 93.468 169.049C93.1424 168.849 93.0083 169.061 93.1701 169.52C93.5751 170.668 91.3318 178.426 90.5729 178.5C89.4554 178.61 85.8478 170.449 84.2796 164.263L82.7354 158.172L81.6727 162.787C81.0885 165.325 80.6101 168.282 80.6101 169.359C80.6101 170.435 80.3651 171.316 80.0652 171.316C79.4262 171.316 75.0571 158.697 74.4078 154.977C74.0448 152.896 73.8694 152.659 73.4625 153.695C73.1878 154.394 72.9428 156.807 72.9177 159.058L72.8725 163.149L70.7769 162.78C69.6247 162.577 62.588 160.977 55.1406 159.224C47.6931 157.472 39.7866 155.841 37.5698 155.6C33.5553 155.163 33.5398 155.168 33.5398 156.812C33.5398 157.866 32.9563 158.844 31.9278 159.514C30.4319 160.488 30.1972 160.486 28.6664 159.489C27.0822 158.457 26.8971 158.484 23.9916 160.163C22.3274 161.124 20.2563 162.366 19.3878 162.923C18.0634 163.774 18.467 162.702 21.9044 156.245C27.4071 145.909 30.7233 140.168 33.2323 136.636C34.3819 135.019 35.8192 131.989 36.4266 129.904C38.2784 123.55 40.4553 119.612 42.9126 118.17C44.141 117.449 45.1462 116.997 45.1462 117.166C45.1462 117.334 42.6747 122.381 39.6538 128.381C34.6598 138.299 30.9606 146.796 30.9606 148.347C30.9606 148.678 32.5746 147.056 34.5476 144.744C38.3584 140.277 39.6873 139.532 39.185 142.143C38.637 144.996 39.6506 143.855 42.1769 138.777C47.1173 128.845 53.5312 120.486 59.5897 116.08C63.8079 113.013 63.55 114.015 58.8256 119.046C53.4983 124.718 49.6785 131.926 47.7538 139.94C47.0484 142.876 46.6086 145.414 46.7762 145.58C46.9432 145.747 47.0806 145.56 47.0806 145.164C47.0806 144.351 49.191 143.954 55.9466 143.496C60.415 143.193 60.6233 143.241 60.6665 144.585C60.7103 145.939 60.7323 145.944 61.2662 144.708C61.5712 144.002 61.8407 142.471 61.8658 141.304C61.9342 138.11 62.991 139.414 63.4785 143.293C64.0659 147.967 67.0784 156.369 69.2758 159.463C71.1238 162.065 71.1006 161.887 68.8477 156.249C67.7309 153.455 67.62 152.142 67.9811 146.034C68.9405 129.828 72.2071 121.846 80.3541 115.803C81.7359 114.778 83.012 113.791 83.1893 113.611C84.3867 112.392 88.7778 109.549 93.0702 107.212C102.306 102.185 108.757 100.978 113.926 103.311ZM79.9653 107.308C73.5721 110.822 66.4239 117.879 64.8132 122.266C61.9593 130.039 62.8266 129.305 53.3674 131.973C51.275 132.563 52.2171 130.879 56.5914 126.208C58.9855 123.651 62.3694 119.88 64.1116 117.828C67.8495 113.423 73.6115 109.028 78.9981 106.472C84.8168 103.71 85.4757 104.28 79.9653 107.308ZM101.244 108.076C85.6286 112.755 75.482 123.68 73.1749 138.296L72.77 140.861L74.7689 137.494C75.8682 135.643 76.8342 134.129 76.9154 134.129C76.9973 134.129 77.0656 138.241 77.0676 143.266C77.0702 149.288 77.3384 152.839 77.8542 153.684C78.5867 154.885 78.6377 154.85 78.6564 153.135C78.6899 150.004 80.6024 143.729 82.9159 139.16C85.261 134.53 91.9205 126.962 95.4559 124.909L97.5303 123.706L95.2528 127.795C92.1533 133.36 90.2795 139.791 89.8571 146.311C89.6624 149.308 89.0989 153.183 88.6037 154.923C88.1078 156.662 87.7067 159.114 87.7113 160.373C87.719 162.319 87.9905 161.888 89.5354 157.475C90.5342 154.623 92.4699 150.44 93.8375 148.178C97.0944 142.794 104.933 135.046 110.593 131.617L115.107 128.883L112.307 129.278C106.411 130.111 99.6484 135.327 94.3881 143.098C91.1584 147.869 90.8966 147.482 93.2127 141.363C96.2484 133.343 101.932 125.129 109.989 117.117C112.638 114.483 114.583 112.333 114.311 112.34C114.04 112.346 112.366 113.155 110.593 114.138C108.82 115.121 106.789 116.238 106.08 116.622C105.37 117.005 103.194 117.781 101.244 118.346C96.9248 119.597 90.0719 124.582 86.4481 129.108C83.2931 133.048 83.0926 132.173 85.9297 126.849C88.6765 121.693 95.7151 114.376 101.83 110.319C108.649 105.795 108.663 105.852 101.244 108.076ZM61.5376 136.248L61.0979 141.079L57.1517 141.725C47.0664 143.376 47.49 143.361 47.9762 142.055C48.2212 141.398 49.0556 139.216 49.8307 137.206L51.2402 133.551L55.1251 132.571C59.4053 131.492 61.4867 131.091 61.7833 131.287C61.8903 131.358 61.7801 133.59 61.5376 136.248Z" fill="white"/>
<path fill-rule="evenodd" clip-rule="evenodd" d="M69.4518 46.7914L73.1039 45.2582C73.4749 45.1024 73.899 45.1305 74.2479 45.334L74.528 45.4973L74.8339 45.3932L76.0172 44.9907L75.5538 43.6631L74.6492 43.9708C73.9818 43.6878 73.2236 43.6821 72.549 43.9653L68.8969 45.4985L69.0188 45.7826C68.3092 46.0624 67.2612 46.478 65.7873 47.0677C62.502 48.3824 57.1004 50.5624 48.6148 54.032C48.5053 53.9008 48.3963 53.7789 48.2872 53.6647C47.5187 52.8611 47.2714 52.8868 45.2343 53.9851C43.5795 54.8775 43.0663 55.8519 43.1576 56.4665C43.3111 57.5001 43.7234 58.3976 44.4732 60.0302C44.9353 61.0363 45.5256 62.3215 46.2626 64.0897C46.2225 63.4125 47.5402 59.652 47.5402 59.652C47.5402 59.652 47.1366 58.8432 46.9131 58.2718C46.6364 57.5644 46.152 56.62 46.152 56.62C46.152 56.62 46.087 56.463 45.9567 56.2148L46.0462 56.0607C46.1697 55.8482 46.4322 55.7613 46.6577 55.8582L46.6865 55.7914C47.3234 57.4092 48.9138 60.3754 50.0574 62.0307C51.7124 64.4261 52.5133 65.1864 53.0708 64.8911C53.7214 64.5466 53.2724 62.7875 51.671 59.4072C50.5749 57.0934 49.7799 55.6228 49.0593 54.6105C57.4414 51.1835 62.7888 49.0254 66.0491 47.7208C67.5354 47.1261 68.5879 46.7088 69.2965 46.4295L69.4518 46.7914ZM46.4518 55.1152C46.1119 55.1198 45.7834 55.2706 45.5584 55.5371C45.5179 55.4738 45.4802 55.4156 45.4456 55.3619L45.4455 55.3619C45.2091 54.9959 45.1093 54.8415 45.1466 54.7352C45.1739 54.6576 45.274 54.6056 45.4473 54.5157L45.4474 54.5157C45.4793 54.4991 45.5138 54.4813 45.5507 54.4617C46.1102 54.1654 46.1516 54.1603 46.4518 55.1152Z" fill="#D4AF37"/>
</g>
<rect x="2.04688" y="2.04688" width="125.906" height="125.906" rx="62.9531" stroke="white" stroke-width="4.09375"/>
<defs>
<clipPath id="clip0_613_156">
<rect width="130" height="130" rx="65" fill="white"/>
</clipPath>
</defs>
</svg>
