<svg width="24" height="24" viewBox="0 0 24 24" fill="none" xmlns="http://www.w3.org/2000/svg">
<path d="M7.20214 24C6.54195 24 5.97658 23.7648 5.50604 23.2944C5.0355 22.824 4.80063 22.2592 4.80143 21.6C4.80143 20.94 5.0367 20.3748 5.50724 19.9044C5.97778 19.434 6.54275 19.1992 7.20214 19.2C7.86234 19.2 8.42771 19.4352 8.89825 19.9056C9.36879 20.376 9.60366 20.9408 9.60286 21.6C9.60286 22.26 9.36759 22.8252 8.89705 23.2956C8.42651 23.766 7.86154 24.0008 7.20214 24ZM19.2057 24C18.5455 24 17.9802 23.7648 17.5096 23.2944C17.0391 22.824 16.8042 22.2592 16.805 21.6C16.805 20.94 17.0403 20.3748 17.5108 19.9044C17.9814 19.434 18.5463 19.1992 19.2057 19.2C19.8659 19.2 20.4313 19.4352 20.9018 19.9056C21.3724 20.376 21.6072 20.9408 21.6064 21.6C21.6064 22.26 21.3712 22.8252 20.9006 23.2956C20.4301 23.766 19.8651 24.0008 19.2057 24ZM6.18184 4.8L9.0627 10.8H17.4652L20.7662 4.8H6.18184ZM7.20214 18C6.30188 18 5.62167 17.6048 5.16154 16.8144C4.7014 16.024 4.68139 15.2392 5.10152 14.46L6.722 11.52L2.40071 2.4H1.17035C0.830247 2.4 0.550164 2.2848 0.330098 2.0544C0.110033 1.824 0 1.5392 0 1.2C0 0.860004 0.115234 0.574804 0.345703 0.344404C0.576171 0.114004 0.861056 -0.000795848 1.20036 4.15225e-06H3.15094C3.371 4.15225e-06 3.58107 0.0600042 3.78113 0.180004C3.98119 0.300004 4.13123 0.470004 4.23126 0.690004L5.0415 2.4H22.7468C23.2869 2.4 23.657 2.6 23.8571 3C24.0572 3.4 24.0472 3.82 23.8271 4.26L19.5658 11.94C19.3458 12.34 19.0557 12.65 18.6956 12.87C18.3355 13.09 17.9253 13.2 17.4652 13.2H8.52254L7.20214 15.6H20.4361C20.7762 15.6 21.0563 15.7152 21.2763 15.9456C21.4964 16.176 21.6064 16.4608 21.6064 16.8C21.6064 17.14 21.4912 17.4252 21.2607 17.6556C21.0303 17.886 20.7454 18.0008 20.4061 18H7.20214Z" fill="white"/>
</svg>
